<svg width="104" height="40" viewBox="0 0 104 40" xmlns="http://www.w3.org/2000/svg"><g fill="none" fill-rule="evenodd"><path d="M11 21L0 0h104v40H0l11-19z" fill="#C3F590"/><path d="M37.38 13.72V28h3.14v-6.16h5.78V28h3.14V13.72H46.3v5.48h-5.78v-5.48h-3.14zm17.96 5.78v-3.34h2.94c.28 0 .55.023.81.07.26.047.49.13.69.25.2.12.36.287.48.5.12.213.18.487.18.82 0 .6-.18 1.033-.54 1.3-.36.267-.82.4-1.38.4h-3.18zm-3.14-5.78V28h6.92c.64 0 1.263-.08 1.87-.24.607-.16 1.147-.407 1.62-.74.473-.333.85-.763 1.13-1.29.28-.527.42-1.15.42-1.87 0-.893-.217-1.657-.65-2.29-.433-.633-1.09-1.077-1.97-1.33.64-.307 1.123-.7 1.45-1.18.327-.48.49-1.08.49-1.8 0-.667-.11-1.227-.33-1.68-.22-.453-.53-.817-.93-1.09-.4-.273-.88-.47-1.44-.59-.56-.12-1.18-.18-1.86-.18H52.2zm3.14 11.84v-3.92h3.42c.68 0 1.227.157 1.64.47.413.313.62.837.62 1.57 0 .373-.063.68-.19.92s-.297.43-.51.57c-.213.14-.46.24-.74.3-.28.06-.573.09-.88.09h-3.36zm13.08-2.3h-3.04c-.013.88.147 1.64.48 2.28.333.64.783 1.167 1.35 1.58.567.413 1.22.717 1.96.91.74.193 1.503.29 2.29.29.973 0 1.83-.113 2.57-.34.74-.227 1.36-.543 1.86-.95.5-.407.877-.89 1.13-1.45.253-.56.38-1.167.38-1.82 0-.8-.17-1.457-.51-1.97-.34-.513-.743-.923-1.21-1.23-.467-.307-.937-.53-1.41-.67-.473-.14-.843-.237-1.11-.29-.893-.227-1.617-.413-2.17-.56-.553-.147-.987-.293-1.3-.44-.313-.147-.523-.307-.63-.48-.107-.173-.16-.4-.16-.68 0-.307.067-.56.2-.76.133-.2.303-.367.51-.5.207-.133.437-.227.69-.28.253-.053.507-.08.76-.08.387 0 .743.033 1.07.1.327.067.617.18.87.34.253.16.457.38.61.66.153.28.243.633.27 1.06h3.04c0-.827-.157-1.53-.47-2.11-.313-.58-.737-1.057-1.27-1.43s-1.143-.643-1.83-.81c-.687-.167-1.403-.25-2.15-.25-.64 0-1.28.087-1.92.26-.64.173-1.213.44-1.72.8-.507.36-.917.81-1.23 1.35-.313.54-.47 1.177-.47 1.91 0 .653.123 1.21.37 1.67.247.46.57.843.97 1.15.4.307.853.557 1.36.75.507.193 1.027.357 1.56.49.52.147 1.033.28 1.54.4.507.12.96.26 1.36.42.4.16.723.36.97.6s.37.553.37.94c0 .36-.093.657-.28.89-.187.233-.42.417-.7.55-.28.133-.58.223-.9.27-.32.047-.62.07-.9.07-.413 0-.813-.05-1.2-.15-.387-.1-.723-.253-1.01-.46-.287-.207-.517-.477-.69-.81-.173-.333-.26-.74-.26-1.22z" fill="#444545"/></g></svg>
