<svg width="104" height="40" viewBox="0 0 104 40" xmlns="http://www.w3.org/2000/svg"><g fill="none" fill-rule="evenodd"><path d="M11 21L0 0h104v40H0l11-19z" fill="#F5E090"/><path d="M52.74 23.5v-9.78H49.6v9.64c0 .253-.01.517-.03.79-.02.273-.08.527-.18.76-.1.233-.263.423-.49.57-.227.147-.547.22-.96.22-.373 0-.677-.06-.91-.18-.233-.12-.417-.283-.55-.49-.133-.207-.227-.457-.28-.75-.053-.293-.08-.613-.08-.96v-.64h-2.84v1.24c0 .787.133 1.457.4 2.01.267.553.62 1.007 1.06 1.36.44.353.94.613 1.5.78.56.167 1.14.25 1.74.25 1.067 0 1.913-.163 2.54-.49.627-.327 1.107-.733 1.44-1.22.333-.487.547-1.01.64-1.57.093-.56.14-1.073.14-1.54zm4.9-.24H54.6c-.013.88.147 1.64.48 2.28.333.64.783 1.167 1.35 1.58.567.413 1.22.717 1.96.91.74.193 1.503.29 2.29.29.973 0 1.83-.113 2.57-.34.74-.227 1.36-.543 1.86-.95.5-.407.877-.89 1.13-1.45.253-.56.38-1.167.38-1.82 0-.8-.17-1.457-.51-1.97-.34-.513-.743-.923-1.21-1.23-.467-.307-.937-.53-1.41-.67-.473-.14-.843-.237-1.11-.29-.893-.227-1.617-.413-2.17-.56-.553-.147-.987-.293-1.3-.44-.313-.147-.523-.307-.63-.48-.107-.173-.16-.4-.16-.68 0-.307.067-.56.2-.76.133-.2.303-.367.51-.5.207-.133.437-.227.69-.28.253-.053.507-.08.76-.08.387 0 .743.033 1.07.1.327.067.617.18.87.34.253.16.457.38.61.66.153.28.243.633.27 1.06h3.04c0-.827-.157-1.53-.47-2.11-.313-.58-.737-1.057-1.27-1.43s-1.143-.643-1.83-.81c-.687-.167-1.403-.25-2.15-.25-.64 0-1.28.087-1.92.26-.64.173-1.213.44-1.72.8-.507.36-.917.81-1.23 1.35-.313.54-.47 1.177-.47 1.91 0 .653.123 1.21.37 1.67.247.46.57.843.97 1.15.4.307.853.557 1.36.75.507.193 1.027.357 1.56.49.52.147 1.033.28 1.54.4.507.12.96.26 1.36.42.4.16.723.36.97.6s.37.553.37.94c0 .36-.093.657-.28.89-.187.233-.42.417-.7.55-.28.133-.58.223-.9.27-.32.047-.62.07-.9.07-.413 0-.813-.05-1.2-.15-.387-.1-.723-.253-1.01-.46-.287-.207-.517-.477-.69-.81-.173-.333-.26-.74-.26-1.22z" fill="#444545"/></g></svg>
